<svg xmlns="http://www.w3.org/2000/svg" viewBox="0 0 19.76 19.95" width="19.76" height="19.95"><defs><style>.cls-1{fill:none;stroke:#fbb040;stroke-miterlimit:10;stroke-width:.06px}.cls-2{fill:url(#Orange_Yellow)}.cls-3{fill:#ffed96}.cls-4{fill:#88281a}</style><linearGradient id="Orange_Yellow" x1="3.47" x2="16.19" y1="7.55" y2="7.55" gradientUnits="userSpaceOnUse"><stop offset="0" stop-color="#fff33b"/><stop offset=".04" stop-color="#fee72e"/><stop offset=".12" stop-color="#fed51b"/><stop offset=".2" stop-color="#fdca10"/><stop offset=".28" stop-color="#fdc70c"/><stop offset=".67" stop-color="#f3903f"/><stop offset=".89" stop-color="#ed683c"/><stop offset="1" stop-color="#e93e3a"/></linearGradient></defs><g id="Ligature"><path d="M13.68 9.25l5.4-.24-5.41.04 5.38-.51-5.39.31L19 8.06l-5.37.59 5.3-1.06-5.33.87 5.23-1.34-5.28 1.15 5.16-1.61-5.21 1.41 5.06-1.87-5.13 1.69 4.96-2.14-5.03 1.96 4.84-2.39-4.93 2.21 4.72-2.64-4.81 2.46 4.57-2.87-4.67 2.7 4.42-3.1-4.53 2.94 4.25-3.33-4.37 3.17 4.08-3.54-4.21 3.39 3.89-3.75-4.03 3.6 3.7-3.94-3.84 3.8 3.49-4.12-3.64 3.99 3.27-4.3-3.42 4.18 3.05-4.46-3.22 4.34 2.82-4.61-2.98 4.51 2.57-4.75-2.75 4.65L13.96.97l-2.5 4.79L13.53.77l-2.25 4.91L13.09.59l-2 5.02L12.64.44l-1.73 5.11L12.19.3l-1.47 5.2 1-5.3-1.2 5.26.73-5.35-.92 5.32.45-5.38-.65 5.36.18-5.4-.38 5.39-.1-5.4-.1 5.4L9.35.01l.18 5.4L8.88.05l.45 5.38L8.4.11l.73 5.35L7.93.2l1.01 5.3L7.46.31l1.29 5.24L7 .44l1.56 5.17L6.55.6l1.82 5.08L6.11.78l2.08 4.98L5.68.98l2.34 4.87-2.76-4.64 2.58 4.74-2.99-4.5 2.83 4.61-3.22-4.34 3.05 4.45L4.08 2l3.28 4.3-3.65-3.99 3.5 4.12-3.84-3.8 3.7 3.94-4.04-3.6 3.9 3.74-4.21-3.38 4.09 3.54L2.43 3.7l4.26 3.32-4.54-2.93 4.43 3.1-4.68-2.7 4.57 2.87-4.81-2.45 4.72 2.62-4.93-2.2L6.3 7.71 1.26 5.77l4.96 2.12-5.13-1.68 5.07 1.87L.94 6.67l5.16 1.6L.82 7.13l5.24 1.33-5.33-.87 5.29 1.06-5.37-.59L6 8.85.6 8.54l5.38.51-5.4-.04 5.4.24-5.4.24 5.4-.04-5.38.51L6 9.65l-5.35.79 5.37-.59-5.29 1.06 5.33-.87-5.24 1.34 5.29-1.14-5.16 1.61 5.21-1.42-5.07 1.87 5.13-1.69-4.96 2.14L6.3 10.8l-4.84 2.39 4.92-2.21-4.71 2.63 4.81-2.46-4.58 2.88 4.68-2.71-4.42 3.11 4.53-2.95-4.25 3.33 4.37-3.17-4.08 3.55 4.21-3.39-3.89 3.74 4.02-3.6-3.69 3.94 3.84-3.8-3.49 4.12 3.64-3.99-3.28 4.3 3.43-4.17-3.05 4.45 3.21-4.34-2.81 4.61 2.98-4.5-2.58 4.74 2.75-4.65-2.33 4.88 2.51-4.79-2.07 4.99 2.25-4.91-1.81 5.09 1.99-5.02-1.55 5.18 1.74-5.12-1.28 5.25L8.94 13l-1 5.31 1.19-5.27-.73 5.35.93-5.32-.45 5.38.65-5.36-.18 5.4.38-5.39.1 5.4.1-5.4.37 5.39-.17-5.4.65 5.36-.45-5.38.93 5.32-.73-5.35 1.2 5.27L10.72 13l1.47 5.2-1.28-5.25 1.74 5.11-1.55-5.17 2 5.02-1.82-5.09 2.27 4.9-2.09-4.98 2.52 4.78-2.34-4.87 2.76 4.65-2.59-4.75 3 4.5-2.83-4.6 3.22 4.33-3.06-4.45 3.44 4.17-3.28-4.29 3.64 3.98-3.49-4.12 3.84 3.8-3.7-3.93 4.03 3.59-3.9-3.74 4.22 3.38-4.09-3.53 4.38 3.16-4.26-3.32 4.54 2.93-4.43-3.1 4.68 2.7-4.58-2.87L18 13.6l-4.72-2.63 4.93 2.2-4.85-2.38 5.04 1.95-4.97-2.13 5.14 1.68-5.07-1.87 5.21 1.42-5.16-1.61 5.28 1.15-5.23-1.34 5.33.87-5.3-1.06 5.37.59-5.34-.79 5.39.32-5.38-.52 5.41.04-5.4-.24z" class="cls-1"/><path d="M3.47 10a6.27 6.27 0 0 1 6.36-5 6.27 6.27 0 0 1 6.36 5z" class="cls-2"/><path d="M0 10s.39 10 10.05 10c9.26 0 9.71-10 9.71-10z" class="cls-3"/><path d="M1.82 14h-.25l-.06-.11.82-.07.06.12-.53.63-.06-.12.2-.21zm.21.23l.15-.23.1-.1H1.9zm-.03.48l.63-.42.07.11-.16.46q-.06.15-.12.27a1.24 1.24 0 0 1 .22-.13l.27-.18.06.1-.64.41-.06-.1.16-.45c0-.1.08-.2.12-.28-.08.05-.15.11-.26.17L2 14.8zm1.07.29a1.06 1.06 0 0 1 .16.19.55.55 0 0 1 .16.34.29.29 0 0 1-.13.27.36.36 0 0 1-.31.09.68.68 0 0 1-.34-.25 1.36 1.36 0 0 1-.12-.17zm-.45.51a.46.46 0 0 0 .07.1c.16.2.33.23.49.1s.15-.28 0-.47l-.1-.1zm1.01.19a1.07 1.07 0 0 1 .17.15.42.42 0 0 1 .14.23.17.17 0 0 1 0 .15.21.21 0 0 1-.26 0 .18.18 0 0 1 0 .2.88.88 0 0 0-.1.19l-.09-.08a1 1 0 0 1 .09-.17.17.17 0 0 0 0-.24l-.08-.08-.23.23-.09-.08zm-.17.3l.09.09c.09.09.18.11.25 0s0-.15 0-.24l-.09-.08zm.77.8L4 16.57l-.18.21.3.26v.06l-.39-.34.5-.57.37.32v.06l-.29-.24-.31.18.26.23zm.21.32l-.21.14-.1-.08.7-.43.11.09-.2.79-.1-.07.07-.25zm.29.11l.06-.23v-.14l-.08.14-.2.12zm.8 0l.2.1a.41.41 0 0 1 .19.18.19.19 0 0 1 0 .18.2.2 0 0 1-.14.1.4.4 0 0 1-.29-.06l-.08-.05-.14.32-.11-.06zm-.08.38l.08.05c.13.07.23.06.28 0s0-.17-.11-.23h-.1zm.8 0l-.12.29.4.17.13-.29h.11l-.31.69h-.11l.15-.33-.41-.14-.09.3-.11-.05.31-.69zm.67.82l-.17.2h-.11l.52-.63h.14l.06.82h-.12v-.26zm.3 0v-.23a.81.81 0 0 1 0-.15l-.08.12-.14.2zm.33.44l.16-.74h.12l.21.43c0 .1.08.19.11.28v-.31l.07-.31h.1l-.1.78H8.1l-.2-.44a1.69 1.69 0 0 1-.12-.28 2.1 2.1 0 0 1-.06.31l-.06.32zm1.39 0l-.11.23h-.12l.37-.73h.14l.25.78h-.13l-.07-.25zm.31-.06l-.08-.22v-.14l-.06.13-.11.21zm1.02.3a.65.65 0 0 1-.24 0 .4.4 0 0 1-.46-.37.42.42 0 0 1 .47-.41.81.81 0 0 1 .22 0v.08a.48.48 0 0 0-.18 0c-.22 0-.36.12-.35.32s.13.3.35.3a.53.53 0 0 0 .19 0zm.32-.24l-.07.25h-.12l.22-.79h.15l.39.72H11l-.12-.22zm.29-.11l-.12-.21-.06-.13v.14l-.07.23zm.31-.47a1.15 1.15 0 0 1 .24-.07.59.59 0 0 1 .38 0 .35.35 0 0 1 .18.24.39.39 0 0 1-.07.32.65.65 0 0 1-.37.19h-.21zm.25.63h.12c.24 0 .35-.2.31-.4s-.18-.26-.42-.21h-.13zm1.17-.6l-.34.11.08.26.38-.12v.08l-.49.15-.24-.72.47-.15v.08l-.36.11.07.23.34-.1zm.92-.32a2 2 0 0 1-.14-.3 2.91 2.91 0 0 1 0 .31v.4h-.08l-.31-.25-.21-.23c0 .09.08.21.12.32l.1.3-.1.05-.24-.72.14-.06.29.27.18.2a2.13 2.13 0 0 1 0-.27v-.4l.14-.06.35.67-.11.05zm.64 0l-.17-.26-.46-.24.12-.07.21.12.16.1v-.42l.12-.07-.05.53.16.28zm1.16-1.22a.4.4 0 0 1-.11.58.37.37 0 0 1-.55-.07.38.38 0 0 1 .1-.57.38.38 0 0 1 .56.06zm-.56.44a.28.28 0 0 0 .41.07.3.3 0 0 0 .05-.43.29.29 0 0 0-.42-.07.29.29 0 0 0-.04.43zm.43-.83l.37-.32v.06l-.28.25.17.18.26-.23.05.06-.25.23.23.26-.09.08zm1.16-.39l.12.23-.08.09-.4-.74.09-.11.78.27-.08.09-.25-.08zm.14-.27l-.22-.08-.14-.05.07.12.11.21zm-.1-.58l.12-.19a.47.47 0 0 1 .21-.18.23.23 0 0 1 .16 0 .2.2 0 0 1 .05.25.22.22 0 0 1 .21 0 1.22 1.22 0 0 0 .21.06l-.07.1a.62.62 0 0 1-.19-.06.16.16 0 0 0-.22.06l-.07.09.27.2-.07.09zm.35.11l.07-.1c.08-.1.08-.2 0-.25s-.17 0-.24.09a.18.18 0 0 0-.06.1zm.25-.81l-.14.24h-.07l.35-.57h.07l-.15.24.58.35-.06.1zm.7-.15a.35.35 0 0 0 .14-.17c.06-.1 0-.19 0-.22s-.12 0-.21.08-.2.17-.3.12-.13-.2-.05-.36a.59.59 0 0 1 .12-.16l.06.07a.54.54 0 0 0-.11.13c-.05.11 0 .18 0 .21s.11 0 .21-.1.2-.15.3-.1.15.19.05.38a.46.46 0 0 1-.15.18zM7.26 10.41s0-.34-.51-.15-.24.73.26.58a.88.88 0 0 0 .45-.25.52.52 0 0 0-.16-.84 1.64 1.64 0 0 0-1.9.89c-.4.89.51 1.36 1.6 1.22a5.37 5.37 0 0 0 3.18-2c.46-.56 1.45-2.32 2.78-2.61a27.49 27.49 0 0 0-1.62 2.86 4.4 4.4 0 0 0-.34 2.32 1.34 1.34 0 0 0 1.82 1 1.69 1.69 0 0 0 .88-.89 1.26 1.26 0 0 0 .09-.5s-.17-.87-1-.34a.63.63 0 0 0-.23.57.28.28 0 0 0 .44.21.38.38 0 0 0 .12-.62s.64.18 0 1.13a.93.93 0 0 1-1.43-.22 3.83 3.83 0 0 1 .2-2.81c.51-1.13 1.45-2.8 1.45-2.8s-.44-.32-1.93.71A15.76 15.76 0 0 0 9 10.29a4.53 4.53 0 0 1-1.81 1.32 2.33 2.33 0 0 1-1 0A.73.73 0 0 1 6 10.37a1 1 0 0 1 1.11-.43c.29.06.36.35.15.47z" class="cls-4"/><path d="M10.64 10.29s-.16-.6-1.37-.71a2.44 2.44 0 0 0-1.12.15s-.64.31-.22.76c.16.17.67 0 1-.38a2.59 2.59 0 0 1-.47.18c-.05 0-.45 0 0-.23a2 2 0 0 1 1.25-.23c.2 0 .61.06.84.81a.86.86 0 0 1-.34 1.09c-.05 0-.19 0-.21-.38s.41-.67.8-.82a5.46 5.46 0 0 1 1.33-.43 2.9 2.9 0 0 1 .81 0 1.77 1.77 0 0 1 1.24 2.18 1.82 1.82 0 0 1-3.15 1s.73-2.28 2.16-2.6h-.23a3.23 3.23 0 0 0-1 .46 7.21 7.21 0 0 0-1.38 2c-.33.77-1.21 2.8-2 3a1 1 0 0 1-1.1.06.46.46 0 0 1 .36-.76s-.42.62.27.47c.37-.08.38-.61-.14-.73a.68.68 0 0 0-.72.8.75.75 0 0 0 .66.68c.3.08.94-.33 1.27-.61a10.56 10.56 0 0 0 1.62-2.42 1.84 1.84 0 0 0 1.78.49 2.67 2.67 0 0 0 1.52-.89 2.16 2.16 0 0 0-.45-3.12c-1.2-.85-2.91.13-3.34.38a1.55 1.55 0 0 0-.55.67c-.08.19-.13 1.11.51.76a1.19 1.19 0 0 0 .49-1.08 1.72 1.72 0 0 0-.12-.55z" class="cls-4"/></g></svg>