<svg xmlns="http://www.w3.org/2000/svg" viewBox="0 0 316.21 319.26" width="316.21" height="319.26"><defs><style>.cls-1{fill:none;stroke:#fbb040;stroke-miterlimit:10}.cls-2{fill:url(#Orange_Yellow)}.cls-3{fill:#ffed96}.cls-4{fill:#88281a}</style><linearGradient id="Orange_Yellow" x1="55.49" x2="259.03" y1="120.84" y2="120.84" gradientUnits="userSpaceOnUse"><stop offset="0" stop-color="#fff33b"/><stop offset=".04" stop-color="#fee72e"/><stop offset=".12" stop-color="#fed51b"/><stop offset=".2" stop-color="#fdca10"/><stop offset=".28" stop-color="#fdc70c"/><stop offset=".67" stop-color="#f3903f"/><stop offset=".89" stop-color="#ed683c"/><stop offset="1" stop-color="#e93e3a"/></linearGradient></defs><g id="Ligature"><path d="M218.87 148.02l86.36-3.79-86.44.58 86.05-8.17-86.29 4.99 85.52-12.56-85.92 9.41 84.75-16.95-85.32 13.84 83.77-21.32-84.49 18.24 82.54-25.63-83.42 22.6 81.1-29.88-82.14 26.9 79.45-34.05-80.64 31.13 77.57-38.12-78.91 35.25 75.5-42.08-77 39.29 73.23-45.92-74.86 43.2 70.77-49.63-72.55 47 68.13-53.2-70.04 50.65 65.31-56.62-67.35 54.18 62.32-59.89-64.49 57.55 59.18-63-61.46 60.78 55.88-65.95-58.27 63.84 52.43-68.72-54.92 66.75 48.83-71.32-51.42 69.47 45.1-73.73-47.78 72.03 41.25-75.96-44.01 74.39 37.28-77.98-40.11 76.56 33.2-79.8-36.09 78.54L209.49 9.5l-31.98 80.3 24.76-82.81-27.76 81.85 20.43-83.98-23.49 83.18L187.5 3.11 168.36 87.4l11.63-85.65-14.76 85.17 7.2-86.14-10.37 85.81L164.85.2l-5.98 86.23L157.26.01l-1.61 86.42L149.68.2l2.78 86.39L142.09.78l7.2 86.14-14.76-85.17 11.63 85.65-19.14-84.29 16.04 84.93-23.48-83.18 20.43 83.98-27.77-81.85L137 89.8 105.03 9.5l29.02 81.42-36.1-78.54 33.2 79.81-40.11-76.57 37.28 77.98-44.01-74.39 41.26 75.96-47.79-72.02 45.11 73.72-51.43-69.46 48.84 71.31-54.93-66.74 52.44 68.72-58.28-63.84 55.88 65.94-61.46-60.77 59.18 62.99-64.49-57.54 62.33 59.88-67.36-54.17 65.31 56.62-70.04-50.65 68.13 53.19-72.54-46.99 70.77 49.62-74.87-43.19 73.23 45.91-76.99-39.28 75.5 42.08-78.92-35.25 77.58 38.11-80.64-31.12 79.45 34.05-82.15-26.9 81.11 29.88-83.43-22.6 82.55 25.63-84.49-18.25 83.77 21.32-85.32-13.84 84.75 16.95-85.92-9.42 85.52 12.57-86.29-4.99 86.05 8.17-86.44-.58 86.36 3.79-86.36 3.79 86.44-.58-86.05 8.17 86.29-4.99-85.52 12.57 85.92-9.42-84.75 16.96 85.32-13.84-83.77 21.31 84.49-18.24-82.54 25.63 83.42-22.6-81.1 29.88 82.14-26.9-79.45 34.05 80.64-31.12-77.57 38.12 78.91-35.26-75.5 42.08 76.99-39.28-73.22 45.92 74.86-43.21-70.77 49.63 72.55-46.99-68.13 53.2 70.04-50.66-65.31 56.62 67.35-54.17-62.32 59.89 64.49-57.55-59.18 63 61.46-60.78-55.88 65.94 58.27-63.84-52.43 68.72 54.92-66.74-48.83 71.32 51.42-69.48-45.1 73.74 47.78-72.03-41.25 75.96 44.01-74.4-37.28 77.99 40.11-76.57-33.2 79.81 36.09-78.54-29.02 81.42 31.98-80.31-24.76 82.82 27.76-81.86-20.43 83.99L143.06 208l-16.04 84.94 19.14-84.29-11.63 85.65 14.76-85.17-7.2 86.13 10.37-85.81-2.79 86.39 5.98-86.22 1.61 86.42 1.61-86.42 5.97 86.22-2.78-86.39 10.37 85.81-7.2-86.13 14.76 85.17-11.63-85.65 19.14 84.29L171.46 208l23.48 83.19-20.43-83.99 27.77 81.85-24.76-82.81 31.97 80.3-29.02-81.41 36.1 78.53-33.2-79.8 40.11 76.56-37.29-77.98 44.02 74.39-41.26-75.95 47.79 72.02-45.11-73.73 51.43 69.47-48.84-71.31 54.93 66.73-52.43-68.71 58.27 63.84-55.88-65.94 61.46 60.77-59.18-63 64.49 57.55-62.33-59.89 67.36 54.17-65.32-56.61 70.05 50.65-68.13-53.2 72.54 46.99-70.77-49.62 74.87 43.2-73.23-45.92 76.99 39.28-75.5-42.07 78.92 35.25-77.58-38.11 80.64 31.12-79.45-34.05 82.14 26.9-81.1-29.88 83.43 22.6-82.55-25.63 84.49 18.24-83.77-21.31 85.32 13.84-84.75-16.96 85.92 9.42-85.52-12.57 86.29 4.99-86.05-8.17 86.44.58-86.36-3.79z" class="cls-1"/><path d="M55.49 160.67S69.92 81 157.26 81 259 160.67 259 160.67z" class="cls-2"/><path d="M0 160.67s6.29 158.59 160.83 158.59c148.2 0 155.38-158.59 155.38-158.59z" class="cls-3"/><path d="M29.17 223.23l-4.08.41-.9-1.73 13.05-1.16 1 2-8.5 10-.88-1.75 2.68-3.13zm3.28 3.69l2.44-2.87c.56-.65 1.1-1.18 1.62-1.69-.73.14-1.5.27-2.28.36l-3.77.34zm-1.13 8.4l10.17-6.61 1.12 1.72-2.61 7.26a32.2 32.2 0 0 1-1.87 4.31 48.19 48.19 0 0 1 4.06-2.9l4.26-2.76 1 1.48-10.18 6.62-1-1.6 2.64-7.23a37.41 37.41 0 0 1 1.91-4.49c-1.23.92-2.42 1.75-4.11 2.85l-4.35 2.83zm17.73 5.02a32.81 32.81 0 0 1 2.71 2.95c1.7 2.1 2.5 3.92 2.54 5.54a5.16 5.16 0 0 1-2.1 4.33 5.86 5.86 0 0 1-5 1.34c-1.74-.35-3.63-1.71-5.41-3.91a34.09 34.09 0 0 1-2-2.74zm-7.16 8.21a15 15 0 0 0 1.11 1.54c2.53 3.12 5.36 3.64 7.9 1.58 2.24-1.79 2.43-4.44-.07-7.53a12.54 12.54 0 0 0-1.51-1.61zm16.18 2.61a22.9 22.9 0 0 1 2.7 2.4c1.41 1.44 2.1 2.57 2.24 3.7a2.82 2.82 0 0 1-.84 2.43 3.34 3.34 0 0 1-4.14.21 3.16 3.16 0 0 1-.26 3.24 16.74 16.74 0 0 0-1.59 3.13l-1.36-1.38a14 14 0 0 1 1.39-2.73 2.66 2.66 0 0 0-.36-3.73l-1.23-1.26-3.76 3.67-1.31-1.34zm-2.63 5.21l1.34 1.37c1.4 1.43 2.95 1.7 3.94.73s.66-2.54-.72-4a9.4 9.4 0 0 0-1.4-1.23zm12.26 12.49l-4.28-3.71-2.87 3.3 4.77 4.14-.87 1-6.18-5.37 8-9.16 5.94 5.15-.86 1-4.52-3.93-2.52 2.9 4.28 3.71zm3.4 5.03l-3.46 2.2-1.58-1.09 11.14-7 1.8 1.38-3.12 12.73-1.63-1.18 1-4zm4.59 1.82l.9-3.66c.2-.83.45-1.54.69-2.24-.59.45-1.22.91-1.88 1.34l-3.22 2zm12.74.03a25.78 25.78 0 0 1 3.27 1.54 6.8 6.8 0 0 1 3.08 2.85 3 3 0 0 1-.11 2.84 3.27 3.27 0 0 1-2.23 1.73 6.78 6.78 0 0 1-4.54-1 7.35 7.35 0 0 1-1.27-.82l-2.35 4.25-1.65-.9zm-1.18 6a7 7 0 0 0 1.3.86c2 1.1 3.63 1 4.44-.51s0-2.73-1.85-3.74a9.51 9.51 0 0 0-1.62-.74zm12.8-.04l-2 4.65 6.45 2.81 2-4.65 1.74.76-4.84 11.12-1.74-.75 2.27-5.22-6.46-2.81-2.27 5.22-1.72-.75L98.33 281zm10.63 13.21l-2.61 3.17-1.85-.59 8.41-10 2.16.69 1 13.07-1.91-.61-.32-4.11zm4.92.29l-.3-3.75c-.06-.86 0-1.61 0-2.34-.43.62-.88 1.25-1.37 1.87l-2.43 2.91zm5.17 6.8l2.52-11.86 2 .42 3.29 7a33.67 33.67 0 0 1 1.74 4.39 44.13 44.13 0 0 1 .83-4.93l1.05-5 1.73.37-2.52 11.86-1.86-.39-3.24-7a36.62 36.62 0 0 1-1.82-4.53h-.07c-.21 1.52-.47 3-.89 4.93l-1.08 5.07zm22.33-.13l-1.8 3.69-1.94-.15 5.85-11.72 2.26.17 4 12.47-2-.15-1.26-3.92zm4.9-.87l-1.16-3.59c-.26-.82-.42-1.55-.58-2.27h-.05c-.27.7-.56 1.42-.9 2.13l-1.68 3.39zm16.26 4.79a11.26 11.26 0 0 1-3.83.63c-4.11.07-7.23-2-7.29-6-.06-3.8 3-6.42 7.49-6.5a9.07 9.07 0 0 1 3.47.49l-.43 1.28a8.2 8.2 0 0 0-2.95-.45c-3.41 0-5.65 1.9-5.6 5.09 0 3 2.13 4.84 5.67 4.78a8.81 8.81 0 0 0 3.06-.55zm5.15-3.87l-1.09 4-1.94.21 3.61-12.6 2.26-.24 6.24 11.53-2 .22-2-3.63zm4.61-1.73l-1.79-3.32a23.05 23.05 0 0 1-1-2.12c-.14.74-.3 1.5-.5 2.26l-1 3.64zm4.98-7.62a30.31 30.31 0 0 1 3.86-1.07c2.64-.56 4.63-.45 6.08.25a5.18 5.18 0 0 1 2.91 3.84 5.87 5.87 0 0 1-1.07 5.05c-1.1 1.39-3.17 2.45-5.94 3-1.31.27-2.42.45-3.37.56zm4.06 10.1a13.22 13.22 0 0 0 1.88-.3c3.93-.83 5.68-3.12 5-6.32-.57-2.8-2.85-4.18-6.74-3.36a12.7 12.7 0 0 0-2.12.62zm18.73-9.47l-5.41 1.67 1.3 4.18 6-1.86.39 1.25-7.82 2.42-3.59-11.59 7.51-2.32.39 1.25-5.7 1.8 1.14 3.66 5.4-1.67zm14.66-5.51c-.76-1.51-1.68-3.33-2.25-4.73h-.06c.1 1.5.14 3.13.12 4.95v6.43l-1.32.56-4.43-4.39a45.5 45.5 0 0 1-3.4-3.68c.56 1.41 1.25 3.32 1.85 5l1.68 4.94-1.65.7-3.91-11.47 2.2-.94 4.59 4.42a41.06 41.06 0 0 1 2.95 3.18h.06a40.33 40.33 0 0 1-.19-4.36l.08-6.41 2.21-.94 5.59 10.8-1.69.72zm10.3.62l-2.52-4.49-7.42-3.82 1.86-1 3.43 1.92c.94.53 1.68 1 2.49 1.48 0-.89 0-1.83.06-2.9l.2-3.95 1.87-1-.87 8.46 2.53 4.51zm18.45-19.77c2.5 3.35 1.38 6.95-1.6 9.17s-6.73 1.92-8.93-1-1.5-6.82 1.62-9.15 6.76-1.9 8.91.98zm-8.94 6.91a4.61 4.61 0 0 0 6.66 1.17c2.39-1.78 2.38-4.62.73-6.83-1.44-1.94-4.16-3.05-6.67-1.18s-2.31 4.71-.72 6.84zm6.96-13.13l5.82-5.25.88 1-4.43 4 2.7 3 4.09-3.69.87 1-4.09 3.62 3.67 4.08-1.4 1.26zm18.54-6.45l1.87 3.65-1.28 1.48-5.87-11.7 1.49-1.71 12.4 4.24-1.32 1.51-3.89-1.34zm2.22-4.4l-3.57-1.22c-.81-.28-1.49-.59-2.16-.89.4.64.8 1.3 1.17 2l1.7 3.38zm-1.54-9.04a24.33 24.33 0 0 1 1.92-3.07 6.8 6.8 0 0 1 3.28-2.82 2.78 2.78 0 0 1 2.53.43 3.31 3.31 0 0 1 .9 4 3.16 3.16 0 0 1 3.24-.3 16.92 16.92 0 0 0 3.36 1l-1.15 1.57a13.49 13.49 0 0 1-2.91-.91 2.66 2.66 0 0 0-3.63 1l-1 1.43 4.26 3.09-1.11 1.52zm5.58 1.73l1.13-1.56c1.18-1.62 1.19-3.19.07-4-1.27-.92-2.63-.22-3.81 1.38a9.05 9.05 0 0 0-1 1.59zm3.53-12.94l-2.29 3.78-1.14-.69 5.59-9.21 1.14.69-2.31 3.8 9.24 5.6-1 1.63zm11.72-2.41a7.69 7.69 0 0 0 2.23-2.65c.86-1.72.61-3.1-.48-3.65s-1.94-.11-3.39 1.36c-1.7 1.8-3.27 2.65-4.8 1.88-1.69-.85-2.09-3.16-.82-5.69a7.78 7.78 0 0 1 2-2.61l.91 1a6.74 6.74 0 0 0-1.76 2.21c-.9 1.78-.35 2.9.39 3.27 1 .51 1.91 0 3.39-1.53 1.82-1.84 3.26-2.51 4.86-1.71s2.36 3.06.81 6.13a8.81 8.81 0 0 1-2.36 3zm-167.09-62.3s0-5.44-8.15-2.4c-6.08 2.56-3.85 11.68 4.08 9.28 0 0 3.33-.32 7.3-4s2.69-11.52-2.59-13.44-22.54-2-30.39 14.24c-6.87 14.23 8.16 21.43 26.24 19.51s38.16-15.89 50.86-31.35c7.35-8.95 23.24-37.07 44.46-41.74 0 0-22 34.65-25.91 45.74-2.72 7.68-9 20.63-6.56 36.47s19.31 19.5 29.11 15.67c6.56-2.56 12.32-9.27 14.08-14.23a20.13 20.13 0 0 0 1.44-8s-2.72-13.91-15.52-5.44a10.11 10.11 0 0 0-3.68 9.12c.32 3 3.2 5.44 7 3.36s5.19-6.56 1.92-9.92c0 0 10.24 2.88-.48 18.08-1.6 2.07-14.51 9.56-22.87-3.52-3.68-5.76-5-26.87 3.2-44.95S213 114.21 213 114.21s-7.09-5-30.87 11.35c-13.91 9.6-29 29.14-37.75 39.12s-19.76 18.08-29 21c-4 1.28-12.63 1.12-16.79-.16s-10.76-9.82-1.92-19.67c5.6-6.24 11.55-9.11 17.75-6.88 4 1.46 5.12 5.62 1.76 7.54z" class="cls-4"/><path d="M170.24 164.68s-2.63-9.67-21.91-11.45a39.15 39.15 0 0 0-17.91 2.4s-10.28 5-3.52 12.16c2.56 2.72 10.72.8 16-6.08 0 0-6 3-7.51 3-.8 0-7.2.45-.64-3.66s16.06-4.57 20-3.79c3.2.64 9.76 1 13.44 13s-4.64 17.43-5.44 17.43-3.11-.16-3.36-6.08c-.16-3.83 6.56-10.71 12.79-13.11s13.76-6.08 21.28-6.88a46.37 46.37 0 0 1 12.95.32s25.11 6.08 19.83 34.87-34.36 32-50.44 16.47c0 0 11.74-36.46 34.61-41.58l-3.68-.32s-10.71 3-15.67 7.36-16.8 19.51-22.07 31.82-19.43 44.85-31.21 47.44c-5 2.72-11.68 5.1-17.6 1-3.2-2.24-3-12 5.76-12.32 0 0-6.76 10.07 4.32 7.68 5.92-1.28 6.13-9.81-2.24-11.84-5.28-1.28-13.12 4.8-11.52 13s5.76 9.6 10.56 10.87 15-5.27 20.31-9.75 24.56-32.54 25.91-38.87a29.43 29.43 0 0 0 28.47 7.84c17.6-4.48 24.32-14.24 24.32-14.24s21.88-29.3-7.2-49.9c-19.2-13.59-46.6 2.14-53.42 6.08-4.16 2.4-7.52 7.68-8.8 10.72s-2 17.76 8.16 12.15c6.39-3.52 8.31-12.63 7.83-17.27a26.51 26.51 0 0 0-2.4-8.47z" class="cls-4"/></g></svg>