<svg xmlns="http://www.w3.org/2000/svg" viewBox="0 0 79.05 79.82" width="79.05" height="79.82"><defs><style>.cls-1{fill:none;stroke:#fbb040;stroke-miterlimit:10;stroke-width:.25px}.cls-2{fill:url(#Orange_Yellow)}.cls-3{fill:#ffed96}.cls-4{fill:#88281a}</style><linearGradient id="Orange_Yellow" x1="13.87" x2="64.76" y1="30.21" y2="30.21" gradientUnits="userSpaceOnUse"><stop offset="0" stop-color="#fff33b"/><stop offset=".04" stop-color="#fee72e"/><stop offset=".12" stop-color="#fed51b"/><stop offset=".2" stop-color="#fdca10"/><stop offset=".28" stop-color="#fdc70c"/><stop offset=".67" stop-color="#f3903f"/><stop offset=".89" stop-color="#ed683c"/><stop offset="1" stop-color="#e93e3a"/></linearGradient></defs><g id="Ligature"><path d="M54.72 37.01l21.59-.95-21.61.14 21.51-2.04-21.57 1.25 21.38-3.15-21.48 2.36 21.18-4.24-21.32 3.46 20.93-5.34-21.12 4.57 20.64-6.41-20.86 5.65 20.28-7.47-20.54 6.73 19.86-8.52-20.15 7.79 19.39-9.54-19.73 8.82 18.87-10.53-19.24 9.83 18.3-11.48-18.71 10.8 17.69-12.41-18.14 11.75 17.03-13.3-17.5 12.67 16.32-14.16-16.84 13.55 15.58-14.98-16.12 14.39 14.8-15.75-15.37 15.2L63.74 9.21 49.17 25.17 62.28 7.99 48.55 24.68 60.76 6.85 47.91 24.22 59.18 5.78 47.23 23.79 57.55 4.8l-11 18.6 9.32-19.5-10.03 19.15 8.3-19.96-9.02 19.64 7.25-20.36-7.99 20.08 6.19-20.7-6.94 20.46 5.1-20.99-5.87 20.79L46.88.78l-4.79 21.07L45 .44l-3.69 21.29L43.11.2l-2.59 21.45.69-21.6-1.49 21.56L39.31 0l-.4 21.61L37.42.05l.69 21.6L35.52.2l1.8 21.53L33.63.44l2.91 21.41L31.75.78l4.01 21.23-5.87-20.79L35 22.21 28.05 1.75l6.2 20.7-8-20.07 7.26 20.35L24.48 3.1l8.3 19.95L22.75 3.91l9.33 19.49L21.07 4.81l10.32 18.98-11.96-18 11.29 18.43L17.86 6.86l12.21 17.82L16.34 8l13.11 17.18L14.88 9.22 28.85 25.7 13.48 10.51l14.8 15.75-16.13-14.38 15.59 14.96L10.9 13.3l16.33 14.15L9.72 14.79l17.03 13.3L8.61 16.34l17.7 12.41-18.72-10.8L25.9 29.43 6.65 19.61l18.88 10.52L5.8 21.31l19.39 9.53-20.16-7.78 19.86 8.51-20.53-6.72 20.28 7.47-20.86-5.66 20.63 6.41-21.12-4.56 20.94 5.33L2.9 30.38l21.19 4.24-21.48-2.36 21.38 3.15-21.57-1.25 21.51 2.04-21.61-.14 21.59.95-21.59.94 21.61-.14-21.51 2.04 21.57-1.25-21.38 3.15 21.48-2.36-21.18 4.24 21.32-3.46-20.94 5.34 21.13-4.57-20.64 6.41 20.86-5.65-20.28 7.48 20.54-6.73-19.86 8.51 20.15-7.78L5.8 52.71l19.73-8.82L6.66 54.42l19.24-9.83L7.6 56.08l18.71-10.81L8.62 57.68l18.14-11.75-17.03 13.3 17.5-12.67-16.32 14.16 16.84-13.55-15.58 14.98 16.12-14.39-14.8 15.75 15.37-15.2L14.89 64.8l14.56-15.96-13.1 17.18 13.73-16.69-12.21 17.84L30.73 49.8 19.45 68.23l11.94-18.01-10.31 18.99 11-18.6-9.31 19.5 10.02-19.14-8.3 19.95 9.02-19.64-7.25 20.36 7.99-20.08-6.19 20.7L35 51.8l-5.11 21L35.77 52l-4.02 21.23 4.79-21.07-2.91 21.41 3.69-21.29-1.8 21.54 2.59-21.46-.69 21.6 1.49-21.56.4 21.61.41-21.61 1.49 21.56-.69-21.6 2.59 21.46-1.8-21.54L45 73.57l-2.91-21.41 4.79 21.07L42.87 52l5.87 20.79-5.11-20.99 6.95 20.46-6.2-20.7 8 20.07-7.26-20.35 9.03 19.63-8.31-19.95L55.88 70.1l-9.33-19.49L57.56 69.2 47.24 50.22l11.95 18-11.28-18.43 12.86 17.36-12.21-17.82 13.73 16.68-13.11-17.17 14.57 15.95-13.97-16.48L65.15 63.5l-14.8-15.75 16.13 14.39-15.59-14.97 16.84 13.54L51.4 46.56l17.51 12.66-17.03-13.3 18.14 11.75-17.7-12.41 18.72 10.8-18.31-11.48 19.25 9.82L53.1 43.89l19.73 8.81-19.39-9.53 20.16 7.78-19.86-8.51 20.53 6.72-20.28-7.46 20.86 5.65-20.63-6.41 21.12 4.56-20.94-5.33 21.32 3.46-21.18-4.24 21.48 2.36-21.38-3.15 21.57 1.25-21.51-2.04 21.61.14-21.59-.94z" class="cls-1"/><path d="M13.87 40.17s3.61-19.92 25.44-19.92 25.45 19.92 25.45 19.92z" class="cls-2"/><path d="M0 40.17s1.57 39.65 40.21 39.65c37.05 0 38.84-39.65 38.84-39.65z" class="cls-3"/><path d="M7.29 55.81l-1 .1-.22-.43 3.26-.29.26.5-2.12 2.5-.24-.45.65-.74zm.82.92l.61-.73c.14-.16.28-.29.41-.42-.18 0-.37.07-.57.09l-.94.08zm-.28 2.1l2.54-1.65.28.43-.65 1.81a8.09 8.09 0 0 1-.47 1.09c.32-.25.62-.46 1-.72l1.06-.69.24.37-2.51 1.65-.26-.4.66-1.8a9.84 9.84 0 0 1 .48-1.13c-.31.23-.61.44-1 .72l-1.09.7zm4.43 1.26a7.09 7.09 0 0 1 .68.73 2.35 2.35 0 0 1 .63 1.39 1.27 1.27 0 0 1-.52 1.08 1.46 1.46 0 0 1-1.25.33 2.52 2.52 0 0 1-1.35-1 8.5 8.5 0 0 1-.51-.62zm-1.79 2a4.45 4.45 0 0 0 .28.38c.64.78 1.34.91 2 .4s.61-1.11 0-1.88a2.68 2.68 0 0 0-.38-.41zm4.05.7a5.71 5.71 0 0 1 .67.6 1.66 1.66 0 0 1 .56.93.68.68 0 0 1-.21.6.82.82 0 0 1-1 0 .79.79 0 0 1-.06.81 4 4 0 0 0-.4.79l-.34-.35a4 4 0 0 1 .34-.68.66.66 0 0 0-.08-.93l-.31-.32-.94.92-.33-.34zm-.66 1.3l.33.35c.36.35.74.42 1 .18s.16-.64-.18-1a2.06 2.06 0 0 0-.35-.3zm3.06 3.12l-1.06-.92-.72.82 1.19 1-.22.24-1.54-1.34 2-2.29L18 66.05l-.21.25-1.13-1-.63.72 1.07.93zm.86 1.26l-.87.55-.39-.28L19.3 67l.46.33-.76 3.2-.41-.3.25-1zm1.14.46l.23-.92c.05-.21.11-.38.17-.56-.15.11-.31.23-.47.33l-.81.5zm3.19 0c.21.09.48.21.81.39a1.72 1.72 0 0 1 .78.71.78.78 0 0 1 0 .71.8.8 0 0 1-.56.43 1.68 1.68 0 0 1-1.14-.24 2.08 2.08 0 0 1-.31-.21l-.59 1.07-.41-.23zm-.3 1.51a2.08 2.08 0 0 0 .33.22c.49.27.91.24 1.11-.13s0-.68-.47-.93a2.13 2.13 0 0 0-.4-.19zm3.19-.02l-.5 1.17 1.61.7.51-1.16.43.19-1.2 2.78-.43-.19.58-1.31-1.61-.7-.57 1.31-.45-.21 1.21-2.78zm2.67 3.31l-.65.79-.46-.15 2.1-2.51.54.18.26 3.26-.46-.15-.08-1zm1.23.07l-.07-.94v-.58a3.72 3.72 0 0 1-.34.47l-.6.73zm1.29 1.69l.63-3 .5.11.83 1.74a8 8 0 0 1 .43 1.1 10.57 10.57 0 0 1 .21-1.23l.27-1.21.44.09-.63 3-.47-.09-.81-1.75a10.33 10.33 0 0 1-.46-1.13c-.06.38-.12.74-.23 1.24l-.26 1.26zm5.58-.02l-.44.92h-.49l1.46-2.93h.57l1 3.12h-.5l-.32-1zm1.23-.22l-.29-.9a4.71 4.71 0 0 1-.15-.56c-.07.17-.14.35-.22.53l-.43.85zm4.07 1.2a3 3 0 0 1-1 .16c-1 0-1.81-.51-1.83-1.51s.75-1.6 1.88-1.62a2.23 2.23 0 0 1 .86.12l-.1.32a1.92 1.92 0 0 0-.74-.11c-.85 0-1.41.47-1.4 1.27s.53 1.21 1.42 1.2a2.29 2.29 0 0 0 .76-.14zm1.28-.97l-.27 1h-.48l.9-3.15.56-.06 1.56 2.89h-.5l-.49-.91zm1.16-.43l-.45-.83c-.1-.19-.18-.36-.25-.53 0 .18-.07.37-.12.57l-.26.91zm1.24-1.91a9.72 9.72 0 0 1 1-.27 2.33 2.33 0 0 1 1.52.07 1.28 1.28 0 0 1 .73 1 1.49 1.49 0 0 1-.27 1.26 2.56 2.56 0 0 1-1.49.76c-.32.07-.6.11-.84.14zm1 2.53a3.85 3.85 0 0 0 .47-.08c1-.21 1.42-.78 1.25-1.58s-.71-1-1.68-.84a3 3 0 0 0-.54.16zm4.7-2.37l-1.35.42.32 1 1.5-.46.1.31-2 .61-.9-2.9L50 71.7l.09.31-1.42.44.28.92 1.4-.37zm3.66-1.38c-.19-.38-.42-.83-.56-1.18a12.14 12.14 0 0 1 0 1.24v1.6l-.33.14-1.1-1.1a9.81 9.81 0 0 1-.85-.91c.13.35.31.83.46 1.26l.42 1.24-.41.17-1-2.89.55-.23 1.15 1.1c.28.29.53.54.74.8v-2.69l.55-.24 1.4 2.7-.42.18zm2.58.16L56.06 71l-1.86-1 .47-.26.86.48.62.37v-1.72l.47-.26-.22 2.12.63 1.13zm4.61-4.94a1.56 1.56 0 0 1-.4 2.29 1.51 1.51 0 0 1-2.23-.26 1.57 1.57 0 0 1 .4-2.29 1.5 1.5 0 0 1 2.23.26zm-2.23 1.72a1.16 1.16 0 1 0 .18-1.71 1.14 1.14 0 0 0-.18 1.71zm1.73-3.28l1.46-1.31.22.24-1.11 1 .68.75 1-.92.22.24-1 .92.92 1-.35.31zM65.44 64l.47.91-.32.37-1.47-2.93.37-.43 3.1 1.08-.33.38-1-.33zm.55-1.1l-.89-.31a5.51 5.51 0 0 1-.54-.22c.1.16.2.32.3.5l.42.84zm-.38-2.29a5.86 5.86 0 0 1 .48-.77 1.76 1.76 0 0 1 .82-.71.71.71 0 0 1 .63.11.83.83 0 0 1 .23 1 .78.78 0 0 1 .81-.07 4.48 4.48 0 0 0 .84.26l-.29.39a3.42 3.42 0 0 1-.73-.23.66.66 0 0 0-.9.25l-.26.35 1.06.78-.28.38zM67 61l.28-.39c.29-.41.29-.8 0-1s-.65-.06-1 .34a2.84 2.84 0 0 0-.24.4zm.89-3.2l-.58 1-.31-.22 1.4-2.31.28.18-.57.95 2.3 1.4-.24.4zm2.93-.6a1.85 1.85 0 0 0 .55-.66c.22-.43.16-.78-.11-.91s-.49 0-.85.34-.82.66-1.2.47-.53-.79-.21-1.44a2 2 0 0 1 .5-.65l.22.26a1.81 1.81 0 0 0-.44.56c-.22.44-.08.72.1.81s.48 0 .85-.38.82-.63 1.21-.43.6.77.21 1.53a2.28 2.28 0 0 1-.59.75zM29.05 41.63s0-1.36-2-.6c-1.52.64-1 2.92 1 2.32a3.48 3.48 0 0 0 1.82-1 2.09 2.09 0 0 0-.66-3.35 6.6 6.6 0 0 0-7.6 3.56c-1.72 3.56 2 5.36 6.56 4.88s9.54-4 12.71-7.84c1.84-2.24 5.81-9.27 11.12-10.44 0 0-5.5 8.67-6.48 11.44-.68 1.92-2.24 5.16-1.64 9.11s4.83 4.88 7.28 3.92a6.77 6.77 0 0 0 3.52-3.56 5 5 0 0 0 .36-2s-.68-3.48-3.88-1.36a2.52 2.52 0 0 0-.92 2.29 1.11 1.11 0 0 0 1.76.84 1.51 1.51 0 0 0 .48-2.47s2.56.72-.12 4.51a3.68 3.68 0 0 1-5.72-.88c-.92-1.44-1.24-6.71.8-11.23s5.8-11.2 5.8-11.2-1.77-1.26-7.72 2.84c-3.48 2.4-7.24 7.28-9.44 9.78a18.21 18.21 0 0 1-7.23 5.26 9.31 9.31 0 0 1-4.2 0c-1-.32-2.69-2.46-.48-4.92 1.4-1.56 2.88-2.28 4.44-1.72 1 .3 1.28 1.34.44 1.82z" class="cls-4"/><path d="M42.56 41.17s-.66-2.42-5.48-2.86a9.75 9.75 0 0 0-4.48.6s-2.57 1.24-.87 3c.63.68 2.67.2 4-1.52a9.63 9.63 0 0 1-1.88.74c-.2 0-1.8.11-.16-.92a8.09 8.09 0 0 1 5-.94c.8.16 2.44.24 3.36 3.24s-1.16 4.36-1.36 4.36-.78 0-.84-1.52c0-1 1.64-2.68 3.2-3.28a21.83 21.83 0 0 1 5.32-1.72 11.61 11.61 0 0 1 3.24.08s6.28 1.52 5 8.71-8.59 8-12.62 4.12c0 0 2.94-9.11 8.66-10.39l-.92-.08a12.92 12.92 0 0 0-3.92 1.84 28.76 28.76 0 0 0-5.52 7.95c-1.32 3.08-4.85 11.23-7.8 11.88-1.24.68-2.91 1.28-4.39.24a1.85 1.85 0 0 1 1.44-3.08s-1.69 2.52 1.07 1.92c1.48-.32 1.54-2.45-.56-3a2.71 2.71 0 0 0-2.87 3.24 3 3 0 0 0 2.64 2.72c1.19.32 3.75-1.32 5.07-2.44S43 56 43.32 54.42a7.36 7.36 0 0 0 7.12 2c4.4-1.12 6.08-3.56 6.08-3.56s5.48-7.36-1.8-12.51c-4.8-3.4-11.65.53-13.36 1.52a6.18 6.18 0 0 0-2.2 2.68c-.32.76-.51 4.44 2 3 1.6-.88 2.08-3.16 2-4.32a6.66 6.66 0 0 0-.6-2.06z" class="cls-4"/></g></svg>