<svg xmlns="http://www.w3.org/2000/svg" viewBox="0 0 39.53 39.91" width="39.53" height="39.91"><defs><style>.cls-1{fill:none;stroke:#fbb040;stroke-miterlimit:10;stroke-width:.13px}.cls-2{fill:url(#Orange_Yellow)}.cls-3{fill:#ffed96}.cls-4{fill:#88281a}</style><linearGradient id="Orange_Yellow" x1="6.94" x2="32.38" y1="15.1" y2="15.1" gradientUnits="userSpaceOnUse"><stop offset="0" stop-color="#fff33b"/><stop offset=".04" stop-color="#fee72e"/><stop offset=".12" stop-color="#fed51b"/><stop offset=".2" stop-color="#fdca10"/><stop offset=".28" stop-color="#fdc70c"/><stop offset=".67" stop-color="#f3903f"/><stop offset=".89" stop-color="#ed683c"/><stop offset="1" stop-color="#e93e3a"/></linearGradient></defs><g id="Ligature"><path d="M27.36 18.5l10.79-.47-10.8.07 10.75-1.02-10.78.62 10.69-1.57-10.74 1.18 10.59-2.12-10.66 1.73 10.47-2.67-10.56 2.28 10.31-3.21L27 16.16l10.13-3.75-10.26 3.37 9.93-4.26-10.08 3.9 9.69-4.77-9.86 4.41 9.43-5.27-9.62 4.92 9.15-5.75-9.35 5.41L35 8.16l-9.07 5.88 8.52-6.65-8.75 6.33 8.16-7.08-8.42 6.78 7.79-7.49-8.06 7.2 7.39-7.88-7.67 7.6 6.98-8.25-7.28 7.98 6.55-8.59-6.87 8.35 6.11-8.92-6.43 8.69 5.64-9.22-5.97 9 5.15-9.49-5.5 9.3 4.66-9.75-5.01 9.57 4.15-9.97-4.51 9.82 3.63-10.18-4 10.03L25.28.87l-3.47 10.24L24.37.61l-2.94 10.4L23.44.39l-2.39 10.54L22.5.22l-1.84 10.65.9-10.77-1.3 10.72.35-10.79-.75 10.77-.2-10.8-.2 10.8L18.71.03l.35 10.79L17.76.1l.9 10.77L16.81.22l1.46 10.71L15.87.39l2.01 10.62L14.94.61l2.56 10.5L14.02.88l3.1 10.35-4-10.04 3.63 10.18-4.51-9.82 4.15 9.98-5.02-9.57 4.67 9.74-5.51-9.29 5.16 9.49-5.98-9 5.65 9.21-6.44-8.68 6.11 8.91L8.16 4l6.56 8.59-7.29-7.98 6.99 8.24-7.68-7.59 7.4 7.87-8.07-7.19 7.8 7.48-8.42-6.76 8.16 7.07L4.86 7.4l8.52 6.65L4.3 8.18l8.85 6.2-9.36-5.4 9.16 5.73-9.63-4.9 9.44 5.25-9.86-4.4 9.7 4.76-10.08-3.89 9.93 4.26-10.27-3.37 10.14 3.74-10.43-2.83 10.32 3.21-10.56-2.28 10.47 2.66-10.67-1.73 10.6 2.12-10.74-1.18L12 17.7l-10.79-.62 10.76 1.02-10.81-.07 10.8.47-10.8.48 10.81-.07-10.76 1.02L12 19.3 1.31 20.88l10.74-1.18-10.6 2.12 10.67-1.73-10.47 2.67 10.56-2.29-10.32 3.21 10.43-2.83-10.14 3.74 10.27-3.37-9.93 4.26 10.08-3.89-9.7 4.77 9.87-4.41-9.44 5.26 9.62-4.91-9.15 5.74 9.36-5.4-8.84 6.2 9.06-5.87-8.51 6.65 8.75-6.34-8.16 7.08 8.41-6.77-7.78 7.49 8.05-7.2-7.39 7.88 7.68-7.6-6.98 8.25 7.28-7.99-6.55 8.59 6.86-8.34-6.1 8.92 6.42-8.69-5.63 9.22 5.97-9.01-5.16 9.5 5.5-9.3-4.66 9.74 5.01-9.57-4.14 9.98 4.51-9.82-3.63 10.18 4-10.04-3.1 10.35L17.5 25.9l-2.55 10.5L17.88 26l-2 10.62 2.39-10.54-1.46 10.71 1.85-10.65-.9 10.77 1.29-10.73-.34 10.8.74-10.78.21 10.8.2-10.8.75 10.78-.35-10.8 1.3 10.73-.9-10.77 1.84 10.65-1.45-10.71 2.4 10.54L21.43 26l2.95 10.4-2.56-10.5 3.47 10.23-3.1-10.35 4 10.03-3.63-10.17 4.52 9.81-4.16-9.97 5.02 9.57-4.66-9.75 5.51 9.3-5.17-9.49 5.98 9-5.64-9.22 6.43 8.68-6.11-8.91L31.15 33l-6.56-8.58 7.29 7.97-6.99-8.24 7.69 7.6-7.4-7.87 8.06 7.19-7.79-7.49 8.42 6.77-8.17-7.07 8.76 6.33-8.52-6.65 9.07 5.87-8.85-6.2 9.36 5.4-9.15-5.74 9.62 4.91-9.44-5.26 9.87 4.41-9.7-4.76 10.08 3.89-9.93-4.26 10.27 3.36L27 20.85l10.43 2.82-10.32-3.2 10.56 2.28-10.47-2.66 10.66 1.73-10.59-2.12 10.74 1.18-10.69-1.58 10.78.63-10.75-1.02 10.8.07-10.79-.48z" class="cls-1"/><path d="M6.94 20.08a12.54 12.54 0 0 1 12.72-9.95 12.55 12.55 0 0 1 12.72 9.95z" class="cls-2"/><path d="M0 20.08s.79 19.83 20.1 19.83c18.53 0 19.43-19.83 19.43-19.83z" class="cls-3"/><path d="M3.65 27.9l-.51.1-.14-.26 1.64-.15.13.26-1.05 1.24-.11-.22.33-.39zm.41.46l.3-.35a2.08 2.08 0 0 1 .2-.21h-.28l-.48.05zm-.14 1.06l1.27-.83.14.21-.33.91a3.5 3.5 0 0 1-.23.54 5.63 5.63 0 0 1 .51-.37l.53-.34.12.18-1.27.83-.13-.2.33-.9a3.63 3.63 0 0 1 .24-.56c-.15.12-.3.22-.51.36L4 29.6zm2.21.58a4.26 4.26 0 0 1 .34.37 1.24 1.24 0 0 1 .32.69.64.64 0 0 1-.26.54.72.72 0 0 1-.63.17 1.2 1.2 0 0 1-.67-.49c-.11-.09-.23-.2-.23-.28zm-.89 1a1.5 1.5 0 0 0 .14.19c.31.39.67.46 1 .2s.3-.56 0-.94a2 2 0 0 0-.19-.2zm2.02.4a2.81 2.81 0 0 1 .34.3.86.86 0 0 1 .28.46.38.38 0 0 1-.11.3.42.42 0 0 1-.52 0 .41.41 0 0 1 0 .41 1.75 1.75 0 0 0-.2.39l-.17-.18a1.65 1.65 0 0 1 .12-.31.33.33 0 0 0 0-.46l-.16-.16-.47.46-.16-.17zm-.33.65l.17.17c.17.18.37.21.49.09s.08-.32-.09-.5a.85.85 0 0 0-.18-.15zm1.53 1.56l-.53-.47-.36.42.59.51-.1.13-.78-.67 1-1.15L9 33l-.11.12-.56-.49L8 33l.54.46zm.43.63l-.44.27-.19-.14 1.39-.86.23.16-.39 1.59-.2-.14.12-.5zm.57.22l.11-.46c0-.11.06-.2.09-.28l-.24.17-.4.25zm1.59.01a2.77 2.77 0 0 1 .41.19.81.81 0 0 1 .39.36.37.37 0 0 1 0 .35.41.41 0 0 1-.28.22.88.88 0 0 1-.56-.13.62.62 0 0 1-.16-.1l-.3.53-.2-.11zm-.14.75a.74.74 0 0 0 .16.11c.25.14.45.12.55-.06s0-.35-.23-.47l-.2-.1zm1.6-.01l-.26.58.81.36.25-.59.22.1-.6 1.39-.22-.1.29-.65-.8-.35-.29.65-.21-.09.6-1.39zm1.32 1.65l-.32.4-.23-.07 1.05-1.26.27.09.13 1.63-.24-.08v-.51zm.62 0v-.47a2.8 2.8 0 0 1 0-.29l-.17.23-.3.36zm.65.89l.31-1.49.25.06.41.87a3.31 3.31 0 0 1 .22.55 5 5 0 0 1 .1-.62l.13-.62h.22l-.31 1.5h-.23l-.41-.87a5.1 5.1 0 0 1-.22-.57c0 .19-.06.37-.11.62l-.14.63zm2.79-.02l-.23.46h-.24l.73-1.47h.28l.51 1.56h-.25l-.16-.49zm.6-.1l-.14-.45c0-.1-.05-.2-.07-.29 0 .09-.07.18-.11.27l-.21.42zm2.04.59a1.22 1.22 0 0 1-.48.08c-.51 0-.9-.25-.91-.75s.38-.8.94-.81a1.1 1.1 0 0 1 .43.06l-.05.16a1.19 1.19 0 0 0-.37-.06c-.43 0-.71.24-.7.64a.61.61 0 0 0 .71.6 1 1 0 0 0 .38-.07zm.65-.48l-.14.49h-.24l.45-1.57h.28l.78 1.44h-.25l-.24-.45zm.57-.22l-.22-.41c-.05-.09-.09-.18-.13-.27l-.06.29-.13.45zm.62-.95a4.09 4.09 0 0 1 .48-.13 1.2 1.2 0 0 1 .77 0A.65.65 0 0 1 24 37a.73.73 0 0 1-.14.63 1.23 1.23 0 0 1-.74.38c-.16 0-.3.06-.42.07zm.51 1.26h.23c.5-.11.71-.39.63-.79s-.36-.53-.84-.42a1.68 1.68 0 0 0-.27.07zm2.34-1.18l-.67.21.16.52.75-.23.05.16-1 .3-.44-1.45.93-.29.05.16-.71.22.14.45.68-.21zm1.84-.65c-.1-.19-.21-.42-.29-.59v1.43l-.17.07-.55-.55c-.17-.17-.31-.32-.43-.46.07.18.15.42.23.63l.21.62-.21.09-.48-1.45.28-.12.57.56a4.26 4.26 0 0 1 .37.39 4.52 4.52 0 0 1 0-.54v-.81l.27-.11.7 1.35-.21.09zm1.28 0l-.34-.52-.9-.48.23-.13.43.24.31.18a2.38 2.38 0 0 1 0-.37v-.49l.23-.13-.1 1.06.31.56zm2.31-2.43a.84.84 0 0 1-1.32 1 .8.8 0 0 1 .21-1.15.75.75 0 0 1 1.11.15zm-1.12.86a.59.59 0 0 0 .84.15.6.6 0 0 0 .09-.86.58.58 0 0 0-.84-.14.57.57 0 0 0-.09.85zm.87-1.64l.73-.66.11.13-.55.49.33.38.52-.46.1.12-.51.46.46.51-.17.16zm2.32-.79l.23.46-.16.18-.73-1.46.19-.21 1.55.53-.17.19-.49-.17zm.28-.55l-.45-.15a1.69 1.69 0 0 1-.27-.11l.14.25.22.43zm-.19-1.15a3.5 3.5 0 0 1 .23-.38.89.89 0 0 1 .41-.35.33.33 0 0 1 .32.05.42.42 0 0 1 .11.51.4.4 0 0 1 .4 0 1.71 1.71 0 0 0 .42.13l-.14.2a1.5 1.5 0 0 1-.36-.11.34.34 0 0 0-.46.12l-.13.18.53.38-.13.19zm.69.22l.14-.19c.15-.21.15-.4 0-.51s-.33 0-.47.18a2.24 2.24 0 0 0-.13.19zm.44-1.62l-.28.48-.14-.09.69-1.15.15.08-.29.48 1.15.7-.12.2zm1.47-.3a1.18 1.18 0 0 0 .28-.33c.11-.21.07-.39-.06-.46s-.24 0-.43.17-.41.34-.6.24-.26-.4-.1-.71a1.1 1.1 0 0 1 .25-.33l.11.13a.92.92 0 0 0-.22.28c-.11.22 0 .36 0 .41s.24 0 .42-.19.41-.32.61-.22.3.38.1.77a1 1 0 0 1-.29.37zm-20.89-7.79s0-.68-1-.3c-.76.32-.48 1.46.51 1.16a1.77 1.77 0 0 0 .92-.5 1.05 1.05 0 0 0-.33-1.68 3.3 3.3 0 0 0-3.8 1.78c-.86 1.78 1 2.68 3.28 2.44s4.77-2 6.36-3.92c.92-1.12 2.91-4.63 5.56-5.21a54.89 54.89 0 0 0-3.24 5.71 8.8 8.8 0 0 0-.82 4.56 2.67 2.67 0 0 0 3.64 2A3.38 3.38 0 0 0 27.34 25a2.52 2.52 0 0 0 .18-1s-.34-1.74-1.94-.68a1.26 1.26 0 0 0-.46 1.14.56.56 0 0 0 .88.42.76.76 0 0 0 .24-1.24s1.28.36-.06 2.26a1.84 1.84 0 0 1-2.86-.44c-.46-.72-.62-3.36.4-5.62s2.9-5.59 2.9-5.59-.89-.63-3.86 1.42A31.12 31.12 0 0 0 18 20.59a9.05 9.05 0 0 1-3.62 2.62 4.66 4.66 0 0 1-2.1 0C11.8 23 11 22 12.08 20.73a2 2 0 0 1 2.22-.86c.5.18.64.7.22.94z" class="cls-4"/><path d="M21.28 20.59s-.33-1.21-2.74-1.44a4.88 4.88 0 0 0-2.24.3s-1.3.63-.44 1.55c.32.34 1.34.1 2-.76a4.74 4.74 0 0 1-.94.38c-.1 0-.9.05-.08-.46a4.06 4.06 0 0 1 2.5-.48c.4.08 1.22.12 1.68 1.62a1.72 1.72 0 0 1-.68 2.18c-.1 0-.39 0-.42-.76 0-.48.82-1.34 1.6-1.64a10.91 10.91 0 0 1 2.66-.86 5.8 5.8 0 0 1 1.62 0 3.54 3.54 0 0 1 2.48 4.36c-.66 3.6-4.3 4-6.31 2.06 0 0 1.47-4.56 4.33-5.2h-.46a6.46 6.46 0 0 0-2 .92 14.42 14.42 0 0 0-2.76 4c-.66 1.54-2.42 5.62-3.9 5.94a2 2 0 0 1-2.2.12.92.92 0 0 1 .72-1.54s-.84 1.26.54 1c.74-.16.77-1.23-.28-1.48a1.36 1.36 0 0 0-1.44 1.62 1.5 1.5 0 0 0 1.32 1.36c.6.16 1.88-.66 2.54-1.22a21.34 21.34 0 0 0 3.24-4.86 3.68 3.68 0 0 0 3.56 1 5.34 5.34 0 0 0 3-1.78s2.73-3.66-.9-6.24c-2.4-1.7-5.83.27-6.68.76a3.09 3.09 0 0 0-1.1 1.34c-.16.38-.25 2.22 1 1.52a2.38 2.38 0 0 0 1-2.16 3.22 3.22 0 0 0-.22-1.15z" class="cls-4"/></g></svg>